<svg width="48" height="48" viewBox="0 0 48 48" fill="none" xmlns="http://www.w3.org/2000/svg">
<path d="M19.713 0.707767C9.98512 4.33516 7.15678 16.7214 14.3562 24.1089C17.1418 27.0285 19.713 28.0459 23.9984 28.0902C26.9553 28.0902 27.9839 27.9132 29.4409 27.0727L31.2836 26.0995L33.512 27.2497C36.5547 28.8422 40.3259 32.6908 41.9543 35.7874C43.0257 37.9107 44.5684 42.5998 44.5684 43.8827C44.5684 44.0596 35.3119 44.2365 23.9984 44.2365C12.6849 44.2365 3.42842 44.0596 3.42842 43.8827C3.42842 43.7057 3.7284 42.3786 4.07122 41.0073C4.97116 37.4241 6.55678 34.416 8.99945 31.6291C10.1994 30.3021 11.1421 28.9307 11.1421 28.5768C11.1421 27.6036 9.94223 26.8516 8.82801 27.1612C7.32813 27.5594 3.98548 31.9388 2.27131 35.7431C0.599991 39.4148 -0.471331 45.5637 0.257166 46.8023C0.685686 47.51 2.57129 47.5543 23.9984 47.5543C45.4254 47.5543 47.311 47.5101 47.7396 46.8023C48.0395 46.2714 48.0395 45.0328 47.6539 42.4228C46.6682 35.3892 42.1257 28.2672 36.5975 24.9494C35.4404 24.2858 34.4119 23.6665 34.3262 23.578C34.2405 23.5338 34.4548 23.0914 34.7976 22.6933C36.7261 20.4372 37.4974 17.96 37.4974 14.1556C37.4546 9.73197 36.4689 7.07777 33.6406 4.20242C30.1265 0.575031 24.127 -0.929008 19.713 0.707722L19.713 0.707767ZM27.1697 4.06978C30.8551 5.21994 34.2835 10.0859 34.2835 14.1557C34.2835 19.641 29.3124 24.7725 23.9985 24.7725C18.6845 24.7725 13.7134 19.6411 13.7134 14.1557C13.7134 11.3688 14.6991 9.11275 16.9275 6.85671C19.9273 3.7159 23.1413 2.87544 27.1696 4.06983L27.1697 4.06978Z" fill="#08FDD8"/>
</svg>
