<svg width="47" height="38" viewBox="0 0 47 38" fill="none" xmlns="http://www.w3.org/2000/svg">
<g clip-path="url(#clip0)">
<path d="M0.503948 0.501148C-0.125665 1.12767 -0.125665 2.21359 0.503948 2.84011C0.881715 3.21603 6.29624 3.34133 22.3299 3.34133H43.6523V33.4135H3.35811L3.27417 20.424C3.14825 8.56218 3.06431 7.35096 2.4347 6.93326C1.88906 6.59913 1.46931 6.59913 0.965651 6.93326C0.252103 7.35092 0.210153 8.60393 0.08423 21.5099C0.000293728 31.5758 0.126216 35.7943 0.461997 36.1701C1.13356 36.9637 45.709 37.0472 46.5065 36.2537C47.22 35.5436 47.22 1.21116 46.5065 0.501114C45.7929 -0.208931 1.2175 -0.208931 0.503984 0.501114L0.503948 0.501148ZM8.89855 7.18384C8.60476 7.47619 8.39486 7.97741 8.39486 8.35332C8.39486 9.18867 22.6657 23.3894 23.5052 23.3894C24.3446 23.3894 38.6155 9.14689 38.6155 8.31154C38.6155 7.51797 37.776 6.68262 36.9785 6.68262C36.6007 6.68262 33.4528 9.56454 29.927 13.0312L23.5052 19.4215L17.0833 13.0312C13.5576 9.56454 10.4096 6.68262 10.0318 6.68262C9.69604 6.68262 9.19235 6.89145 8.89855 7.18384ZM11.4169 24.7677C8.39486 27.775 7.97514 28.6521 8.89855 29.5709C9.86395 30.5316 10.7454 30.0721 13.7674 27.0231C16.7895 24.0159 17.2092 23.1388 16.2858 22.2199C15.3204 21.2593 14.439 21.7187 11.4169 24.7677ZM30.7246 22.22C29.7592 23.1806 30.2209 24.0577 33.2849 27.065C36.307 30.0722 37.1884 30.4898 38.1118 29.571C39.0772 28.6103 38.6155 27.7332 35.5514 24.726C32.5294 21.7188 31.648 21.3011 30.7246 22.22Z" fill="#08FDD8"/>
</g>
<defs>
<clipPath id="clip0">
<rect width="47" height="38" fill="white"/>
</clipPath>
</defs>
</svg>
