<svg width="64" height="64" viewBox="0 0 64 64" fill="none" xmlns="http://www.w3.org/2000/svg">
<path d="M63.1001 30.9C62.6001 30.1 50.0001 12.5 32.0001 12.5C14.0001 12.5 1.4001 30.1 0.900098 30.9L0.100098 32L0.900098 33.1C1.4001 33.9 14.0001 51.5 32.0001 51.5C50.0001 51.5 62.6001 33.9 63.1001 33.1L63.9001 32L63.1001 30.9ZM32.0001 47.5C18.5001 47.5 8.0001 35.8 5.0001 32C8.0001 28.2 18.5001 16.5 32.0001 16.5C45.5001 16.5 56.0001 28.2 59.0001 32C56.0001 35.8 45.5001 47.5 32.0001 47.5Z" fill="#F6F6F6"/>
<path d="M32 19.5C29.6266 19.5 27.3066 20.2038 25.3332 21.5224C23.3598 22.8409 21.8217 24.7151 20.9135 26.9078C20.0052 29.1005 19.7676 31.5133 20.2306 33.8411C20.6936 36.1689 21.8365 38.3071 23.5147 39.9853C25.193 41.6635 27.3311 42.8064 29.6589 43.2694C31.9867 43.7324 34.3995 43.4948 36.5922 42.5866C38.7849 41.6783 40.6591 40.1402 41.9776 38.1668C43.2962 36.1935 44 33.8734 44 31.5C44 28.3174 42.7357 25.2652 40.4853 23.0147C38.2349 20.7643 35.1826 19.5 32 19.5ZM32 37.5C30.9465 37.5007 29.9113 37.2239 28.9987 36.6976C28.086 36.1713 27.328 35.4139 26.801 34.5017C26.2739 33.5894 25.9963 32.5545 25.9962 31.501C25.996 30.4474 26.2732 29.4124 26.8 28.5C27.0652 28.0359 27.504 27.6961 28.0197 27.5555C28.5354 27.4148 29.0859 27.4848 29.55 27.75C30.0141 28.0152 30.3539 28.4539 30.4945 28.9697C30.6352 29.4854 30.5652 30.0359 30.3 30.5C30.1132 30.8009 30.0097 31.146 30 31.5C30 32.0304 30.2107 32.5391 30.5858 32.9142C30.9609 33.2893 31.4696 33.5 32 33.5C32.5304 33.5 33.0391 33.7107 33.4142 34.0858C33.7893 34.4609 34 34.9696 34 35.5C34 36.0304 33.7893 36.5391 33.4142 36.9142C33.0391 37.2893 32.5304 37.5 32 37.5Z" fill="#F6F6F6"/>
</svg>
