<svg width="48" height="48" viewBox="0 0 48 48" fill="none" xmlns="http://www.w3.org/2000/svg">
<g clip-path="url(#clip0)">
<path d="M11.6529 11.6957C5.26951 18.0791 0 23.6485 0 24.0341C0 24.848 0.856821 25.7049 1.6708 25.7049C2.05636 25.7049 7.24018 20.8209 13.1523 14.9088L23.9912 4.06993L37.7005 17.7792V43.6983H10.2819L10.1962 34.6587C10.0677 26.5617 9.98202 25.5335 9.33943 25.1051C8.78248 24.7624 8.35407 24.7624 7.83997 25.1051C7.15449 25.5335 7.06884 26.6045 6.9403 35.7726C6.85461 42.9271 6.98315 46.1402 7.32587 46.5258C8.01135 47.3397 39.7997 47.4254 40.6137 46.6115C40.9992 46.2259 41.1278 42.7557 41.1278 33.6733V21.2493L43.3983 23.477C44.6407 24.7194 45.926 25.7048 46.3116 25.7048C47.1256 25.7048 47.9824 24.8479 47.9824 23.9911C47.9824 23.1343 24.848 -8.39233e-05 23.9912 -8.39233e-05C23.6484 -8.39233e-05 18.0791 5.26942 11.6528 11.6956L11.6529 11.6957Z" fill="#08FDD8"/>
</g>
<defs>
<clipPath id="clip0">
<rect width="48" height="48" fill="white"/>
</clipPath>
</defs>
</svg>
