<svg width="48" height="48" viewBox="0 0 48 48" fill="none" xmlns="http://www.w3.org/2000/svg">
<path d="M9.77693 37.875H15.9644V19.2857H9.77693V37.875ZM16.3662 13.5536C16.3484 12.625 16.0269 11.8572 15.4019 11.25C14.7769 10.6429 13.9466 10.3393 12.9109 10.3393C11.8751 10.3393 11.0314 10.6429 10.3796 11.25C9.72782 11.8572 9.40193 12.625 9.40193 13.5536C9.40193 14.4643 9.71889 15.2277 10.3528 15.8438C10.9867 16.4598 11.8126 16.7679 12.8305 16.7679H12.8573C13.9109 16.7679 14.7591 16.4598 15.4019 15.8438C16.0448 15.2277 16.3662 14.4643 16.3662 13.5536ZM32.0359 37.875H38.2234V27.2143C38.2234 24.4643 37.5716 22.3839 36.268 20.9732C34.9644 19.5625 33.2412 18.8572 31.0984 18.8572C28.6698 18.8572 26.8037 19.9018 25.5001 21.9911H25.5537V19.2857H19.3662C19.4198 20.4643 19.4198 26.6607 19.3662 37.875H25.5537V27.4822C25.5537 26.8036 25.6162 26.3036 25.7412 25.9822C26.0091 25.3572 26.4109 24.8259 26.9466 24.3884C27.4823 23.9509 28.143 23.7322 28.9287 23.7322C31.0001 23.7322 32.0359 25.1339 32.0359 27.9375V37.875ZM44.5716 11.1429V36.8572C44.5716 38.9822 43.8171 40.7991 42.3082 42.3081C40.7992 43.817 38.9823 44.5714 36.8573 44.5714H11.143C9.018 44.5714 7.20103 43.817 5.6921 42.3081C4.18318 40.7991 3.42871 38.9822 3.42871 36.8572V11.1429C3.42871 9.01787 4.18318 7.20091 5.6921 5.69198C7.20103 4.18305 9.018 3.42859 11.143 3.42859H36.8573C38.9823 3.42859 40.7992 4.18305 42.3082 5.69198C43.8171 7.20091 44.5716 9.01787 44.5716 11.1429Z" fill="#08FDD8"/>
</svg>
