<svg width="128" height="132" viewBox="0 0 128 132" fill="none" xmlns="http://www.w3.org/2000/svg">
<path d="M58.2393 1.67575C61.7195 -0.189571 66.2525 -0.197996 69.7298 1.67575C87.2234 10.9317 104.723 20.1731 122.213 29.4346C125.503 31.1698 127.704 34.5981 127.67 38.1476V93.8347C127.695 97.5312 125.277 101.041 121.806 102.737C104.37 111.942 86.9425 121.158 69.5093 130.363C65.9571 132.265 61.3331 132.118 57.8918 130.061C52.6645 127.223 47.4281 124.4 42.2003 121.565C41.132 120.969 39.9278 120.494 39.1734 119.524C39.8403 118.683 41.0325 118.578 42.0013 118.21C44.1833 117.561 46.1874 116.518 48.192 115.506C48.6989 115.181 49.3177 115.305 49.8036 115.596C54.2736 117.996 58.7042 120.466 63.1892 122.842C64.146 123.36 65.1148 122.673 65.9326 122.246C83.0428 113.191 100.174 104.17 117.281 95.1121C117.915 94.8266 118.266 94.1966 118.214 93.5464C118.226 75.1764 118.217 56.8031 118.22 38.4331C118.293 37.6954 117.837 37.0171 117.124 36.7152C99.7487 27.5524 82.382 18.3756 65.0093 9.21052C64.7083 9.01676 64.3517 8.91279 63.9865 8.91229C63.6212 8.91179 63.2643 9.01477 62.9627 9.20771C45.59 18.3756 28.2263 27.5609 10.8536 36.7232C10.1438 37.0256 9.66739 37.6926 9.75188 38.4331C9.75488 56.8031 9.75188 75.1764 9.75188 93.5492C9.72175 93.8664 9.79616 94.1847 9.96508 94.4611C10.134 94.7375 10.3893 94.9589 10.6967 95.0953C15.3327 97.5569 19.9746 100.001 24.6136 102.455C27.2271 103.772 30.4358 104.554 33.3152 103.545C35.8562 102.692 37.6373 100.264 37.5888 97.7376C37.6128 79.4748 37.5768 61.2092 37.6068 42.9492C37.5433 42.1384 38.3646 41.4686 39.2064 41.5449C41.4339 41.5309 43.6645 41.5168 45.892 41.5505C46.8218 41.5309 47.4616 42.4039 47.3466 43.2207C47.3376 61.5991 47.3706 79.978 47.3317 98.3564C47.3377 103.254 45.1886 108.584 40.3502 110.981C34.3895 113.872 27.0221 113.259 21.1334 110.486C16.0355 108.104 11.1706 105.292 6.16316 102.74C2.68342 101.053 0.277449 97.5289 0.301944 93.8352V38.1476C0.265452 34.5246 2.55345 31.0341 5.94571 29.3241C23.3789 20.1118 40.8091 10.8923 58.2393 1.67575Z" fill="#8CC84B"/>
<path d="M73.4479 40.2506C81.0512 39.7924 89.191 39.9792 96.033 43.4865C101.33 46.1743 104.267 51.8152 104.361 57.3259C104.213 58.0692 103.383 58.4793 102.625 58.4283C100.419 58.4255 98.2125 58.4563 96.0065 58.4142C95.0707 58.4479 94.5268 57.64 94.4093 56.8653C93.7755 54.2286 92.2398 51.6172 89.5894 50.3454C85.5208 48.4379 80.8033 48.5339 76.3668 48.5737C73.128 48.7347 69.6452 48.9973 66.9013 50.7807C64.7948 52.1316 64.1549 54.8586 64.9068 57.0549C65.6156 58.6319 67.5597 59.1407 69.1503 59.6097C78.3133 61.8537 88.0232 61.6304 97.0113 64.5836C100.732 65.7875 104.373 68.1279 105.646 71.7762C107.313 76.6658 106.582 82.5103 102.867 86.4357C99.8542 89.6659 95.4661 91.4241 91.0896 92.3789C85.2673 93.5946 79.2251 93.6255 73.3124 93.0858C67.7526 92.4922 61.9669 91.1245 57.6748 87.5773C54.0046 84.5933 52.212 79.9438 52.39 75.4563C52.4325 74.6984 53.2383 74.17 54.0136 74.2322C56.2352 74.2154 58.4567 74.2098 60.6782 74.235C61.5655 74.1756 62.2234 74.8936 62.2688 75.6767C62.6788 78.1889 63.687 80.8257 66.0265 82.3151C70.5415 85.0426 76.2068 84.8559 81.3767 84.9322C85.6597 84.7543 90.4677 84.7005 93.9629 82.0497C95.807 80.5378 96.3534 78.0083 95.855 75.8321C95.3151 73.9949 93.2626 73.1388 91.5 72.5789C82.4544 69.8996 72.6361 70.8718 63.678 67.8419C60.0413 66.6385 56.5246 64.3631 55.1274 60.8646C53.1778 55.9132 54.0711 49.7888 58.1757 45.9959C62.1779 42.2232 67.9551 40.7702 73.4479 40.2502V40.2506Z" fill="#8CC84B"/>
</svg>
