<svg width="140" height="128" viewBox="0 0 140 128" fill="none" xmlns="http://www.w3.org/2000/svg">
<path d="M140 64.0146C140 54.493 128.386 45.4694 110.579 39.8737C114.688 21.2406 112.862 6.41611 104.815 1.66995C102.96 0.556649 100.791 0.0292973 98.4223 0.0292973V6.5626C99.735 6.5626 100.791 6.82628 101.675 7.32433C105.556 9.60952 107.24 18.3108 105.927 29.5024C105.614 32.2564 105.1 35.1568 104.472 38.1158C98.8789 36.7095 92.7721 35.6255 86.3514 34.9224C82.499 29.5024 78.5039 24.5805 74.4802 20.2737C83.7831 11.3967 92.5153 6.5333 98.4509 6.5333V0C90.6033 0 80.3302 5.74227 69.9429 15.7034C59.5556 5.80087 49.2825 0.117189 41.435 0.117189V6.65049C47.342 6.65049 56.1027 11.4846 65.4056 20.303C61.4105 24.6098 57.4154 29.5024 53.6201 34.9224C47.1708 35.6255 41.064 36.7095 35.4709 38.1451C34.8145 35.2154 34.3294 32.3735 33.987 29.6489C32.6457 18.4573 34.3009 9.75601 38.1533 7.44152C39.0094 6.91417 40.1223 6.67979 41.435 6.67979V0.146487C39.0379 0.146487 36.8691 0.673838 34.9857 1.78714C26.967 6.5333 25.1692 21.3284 29.307 39.903C11.5573 45.528 0 54.5223 0 64.0146C0 73.5363 11.6143 82.5599 29.4211 88.1556C25.3119 106.789 27.1382 121.613 35.1855 126.359C37.0404 127.473 39.2091 128 41.6062 128C49.4537 128 59.7269 122.258 70.1141 112.297C80.5014 122.199 90.7746 127.883 98.6221 127.883C101.019 127.883 103.188 127.355 105.071 126.242C113.09 121.496 114.888 106.701 110.75 88.1263C128.443 82.5306 140 73.507 140 64.0146ZM102.845 44.4733C101.79 48.2527 100.477 52.1492 98.9931 56.0458C97.8231 53.702 96.596 51.3582 95.2548 49.0144C93.9421 46.6706 92.5438 44.3854 91.1455 42.1588C95.1977 42.7741 99.1072 43.5358 102.845 44.4733ZM89.7758 75.675C87.5499 79.6301 85.267 83.3802 82.8985 86.8666C78.6466 87.2474 74.3375 87.4525 70 87.4525C65.691 87.4525 61.382 87.2474 57.1586 86.8959C54.7901 83.4095 52.4786 79.6887 50.2528 75.7629C48.084 71.9249 46.115 68.0284 44.3172 64.1025C46.0864 60.1767 48.084 56.2509 50.2242 52.4129C52.4501 48.4578 54.733 44.7077 57.1015 41.2213C61.3534 40.8405 65.6625 40.6354 70 40.6354C74.309 40.6354 78.618 40.8405 82.8414 41.192C85.2099 44.6784 87.5214 48.3992 89.7473 52.325C91.916 56.163 93.885 60.0595 95.6828 63.9853C93.885 67.9112 91.916 71.837 89.7758 75.675ZM98.9931 71.8663C100.534 75.7922 101.847 79.718 102.931 83.5267C99.1928 84.4642 95.2548 85.2552 91.1741 85.8705C92.5724 83.6146 93.9706 81.3001 95.2833 78.927C96.596 76.5832 97.8231 74.2101 98.9931 71.8663ZM70.0571 103.127C67.4032 100.314 64.7493 97.1792 62.1239 93.7514C64.6922 93.8686 67.3176 93.9565 69.9715 93.9565C72.6539 93.9565 75.3078 93.8979 77.9046 93.7514C75.3363 97.1792 72.6824 100.314 70.0571 103.127ZM48.8259 85.8705C44.7737 85.2552 40.8643 84.4935 37.126 83.556C38.1818 79.7766 39.4945 75.8801 40.9784 71.9835C42.1484 74.3273 43.3755 76.6711 44.7167 79.0149C46.0579 81.3587 47.4276 83.6439 48.8259 85.8705ZM69.9144 24.9027C72.5683 27.7153 75.2222 30.8501 77.8475 34.2779C75.2792 34.1607 72.6539 34.0728 70 34.0728C67.3176 34.0728 64.6637 34.1314 62.0669 34.2779C64.6351 30.8501 67.289 27.7153 69.9144 24.9027ZM48.7974 42.1588C47.3991 44.4147 46.0008 46.7292 44.6881 49.1023C43.3755 51.4461 42.1484 53.7899 40.9784 56.1337C39.4374 52.2078 38.1247 48.282 37.0404 44.4733C40.7786 43.5651 44.7167 42.7741 48.7974 42.1588ZM22.9719 78.8391C12.87 74.4152 6.3351 68.6143 6.3351 64.0146C6.3351 59.415 12.87 53.5848 22.9719 49.1902C25.426 48.1062 28.1084 47.1394 30.8765 46.2312C32.5031 51.9735 34.6433 57.9501 37.2972 64.0732C34.6718 70.1671 32.5601 76.1144 30.9621 81.8274C28.137 80.9192 25.4545 79.9231 22.9719 78.8391ZM38.3245 120.705C34.4435 118.42 32.7599 109.718 34.0726 98.5269C34.3865 95.7729 34.9001 92.8725 35.5279 89.9135C41.1211 91.3198 47.2279 92.4038 53.6486 93.1069C57.501 98.5269 61.4961 103.449 65.5198 107.756C56.2169 116.633 47.4847 121.496 41.5491 121.496C40.265 121.467 39.1806 121.203 38.3245 120.705ZM106.013 98.3804C107.354 109.572 105.699 118.273 101.847 120.588C100.991 121.115 99.8777 121.35 98.565 121.35C92.658 121.35 83.8973 116.515 74.5944 107.697C78.5895 103.39 82.5846 98.4976 86.3799 93.0776C92.8292 92.3745 98.936 91.2905 104.529 89.8549C105.185 92.8139 105.699 95.6558 106.013 98.3804ZM117 78.8391C114.545 79.9231 111.863 80.8899 109.095 81.7981C107.468 76.0559 105.328 70.0792 102.674 63.9561C105.3 57.8622 107.411 51.9149 109.009 46.2019C111.834 47.1101 114.517 48.1062 117.028 49.1902C127.13 53.6141 133.665 59.415 133.665 64.0146C133.636 68.6143 127.102 74.4445 117 78.8391Z" fill="#61DAFB"/>
<path d="M69.9716 77.4035C77.174 77.4035 83.0128 71.4091 83.0128 64.0147C83.0128 56.6202 77.174 50.6258 69.9716 50.6258C62.7692 50.6258 56.9304 56.6202 56.9304 64.0147C56.9304 71.4091 62.7692 77.4035 69.9716 77.4035Z" fill="#61DAFB"/>
</svg>
