<svg width="43" height="38" viewBox="0 0 43 38" fill="none" xmlns="http://www.w3.org/2000/svg">
<path d="M43 19.0043C43 16.1776 39.4327 13.4987 33.9635 11.8375C35.2256 6.30579 34.6647 1.90478 32.193 0.495766C31.6233 0.165255 30.9572 0.00869764 30.2297 0.00869764V1.94827C30.6329 1.94827 30.9572 2.02655 31.2289 2.17441C32.4209 2.85283 32.938 5.43603 32.5349 8.75853C32.4384 9.5761 32.2807 10.4372 32.0879 11.3156C30.37 10.8981 28.4943 10.5763 26.5222 10.3676C25.339 8.75853 24.1119 7.29732 22.8761 6.01877C25.7334 3.38338 28.4154 1.93957 30.2385 1.93957V0C27.8282 0 24.6729 1.70474 21.4825 4.66194C18.2921 1.72213 15.1368 0.0347906 12.7265 0.0347906V1.97436C14.5408 1.97436 17.2316 3.40948 20.0889 6.02747C18.8618 7.30602 17.6347 8.75853 16.469 10.3676C14.4882 10.5763 12.6125 10.8981 10.8946 11.3243C10.693 10.4546 10.544 9.61089 10.4389 8.80201C10.0269 5.47951 10.5353 2.89631 11.7185 2.2092C11.9815 2.05264 12.3233 1.98306 12.7265 1.98306V0.0434882C11.9902 0.0434882 11.3241 0.200046 10.7456 0.530556C8.28271 1.93957 7.73053 6.33188 9.00143 11.8462C3.54973 13.5161 0 16.1863 0 19.0043C0 21.8311 3.56726 24.51 9.03649 26.1712C7.77436 31.7029 8.3353 36.1039 10.807 37.5129C11.3767 37.8434 12.0428 38 12.779 38C15.1894 38 18.3447 36.2953 21.5351 33.3381C24.7254 36.2779 27.8808 37.9652 30.2911 37.9652C31.0273 37.9652 31.6934 37.8087 32.2719 37.4781C34.7348 36.0691 35.287 31.6768 34.0161 26.1625C39.4503 24.5013 43 21.8224 43 19.0043ZM31.5883 13.203C31.264 14.325 30.8608 15.4818 30.405 16.6386C30.0457 15.9428 29.6688 15.247 29.2568 14.5512C28.8536 13.8553 28.4242 13.1769 27.9947 12.5159C29.2393 12.6986 30.4401 12.9247 31.5883 13.203ZM27.574 22.466C26.8903 23.6402 26.1892 24.7535 25.4617 25.7885C24.1557 25.9016 22.8322 25.9625 21.5 25.9625C20.1765 25.9625 18.853 25.9016 17.5559 25.7972C16.8284 24.7622 16.1184 23.6576 15.4348 22.4921C14.7687 21.3527 14.1639 20.1959 13.6117 19.0304C14.1551 17.865 14.7687 16.6995 15.426 15.5601C16.1097 14.3859 16.8108 13.2726 17.5383 12.2376C18.8443 12.1245 20.1678 12.0636 21.5 12.0636C22.8235 12.0636 24.147 12.1245 25.4441 12.2289C26.1716 13.2639 26.8816 14.3685 27.5652 15.534C28.2313 16.6734 28.8361 17.8302 29.3883 18.9957C28.8361 20.1611 28.2313 21.3266 27.574 22.466ZM30.405 21.3353C30.8783 22.5008 31.2815 23.6663 31.6146 24.797C30.4664 25.0753 29.2568 25.3101 28.0035 25.4928C28.4329 24.8231 28.8624 24.136 29.2656 23.4314C29.6688 22.7356 30.0457 22.0311 30.405 21.3353ZM21.5175 30.6157C20.7024 29.7807 19.8873 28.8501 19.0809 27.8325C19.8698 27.8672 20.6761 27.8933 21.4912 27.8933C22.3151 27.8933 23.1302 27.8759 23.9278 27.8325C23.139 28.8501 22.3239 29.7807 21.5175 30.6157ZM14.9965 25.4928C13.7519 25.3101 12.5512 25.084 11.403 24.8057C11.7273 23.6837 12.1305 22.5269 12.5862 21.3701C12.9456 22.0659 13.3225 22.7617 13.7344 23.4575C14.1464 24.1534 14.5671 24.8318 14.9965 25.4928ZM21.4737 7.393C22.2888 8.22797 23.104 9.15862 23.9103 10.1762C23.1215 10.1415 22.3151 10.1154 21.5 10.1154C20.6761 10.1154 19.861 10.1328 19.0634 10.1762C19.8522 9.15862 20.6673 8.22797 21.4737 7.393ZM14.9878 12.5159C14.5583 13.1856 14.1288 13.8727 13.7256 14.5772C13.3225 15.2731 12.9456 15.9689 12.5862 16.6647C12.1129 15.4992 11.7097 14.3337 11.3767 13.203C12.5249 12.9334 13.7344 12.6986 14.9878 12.5159ZM7.05565 23.4054C3.95291 22.092 1.94578 20.3699 1.94578 19.0043C1.94578 17.6388 3.95291 15.908 7.05565 14.6033C7.80942 14.2815 8.63331 13.9945 9.48349 13.7249C9.98308 15.4296 10.6404 17.2039 11.4556 19.0217C10.6492 20.8309 10.0006 22.5965 9.50978 24.2925C8.64207 24.0229 7.81818 23.7272 7.05565 23.4054ZM11.7711 35.8343C10.5791 35.1559 10.062 32.5727 10.4651 29.2502C10.5616 28.4326 10.7193 27.5715 10.9121 26.6931C12.63 27.1105 14.5057 27.4324 16.4778 27.6411C17.661 29.2502 18.8881 30.7114 20.1239 31.9899C17.2666 34.6253 14.5846 36.0691 12.7615 36.0691C12.3671 36.0604 12.034 35.9821 11.7711 35.8343ZM32.5611 29.2067C32.9731 32.5292 32.4647 35.1124 31.2815 35.7995C31.0185 35.9561 30.6767 36.0256 30.2735 36.0256C28.4592 36.0256 25.7684 34.5905 22.9111 31.9725C24.1382 30.694 25.3653 29.2415 26.531 27.6324C28.5118 27.4237 30.3875 27.1019 32.1054 26.6757C32.307 27.5541 32.4647 28.3978 32.5611 29.2067ZM35.9356 23.4054C35.1818 23.7272 34.3579 24.0142 33.5077 24.2838C33.0082 22.5791 32.3508 20.8048 31.5357 18.987C32.342 17.1778 32.9906 15.4122 33.4815 13.7162C34.3492 13.9858 35.1731 14.2815 35.9444 14.6033C39.0471 15.9167 41.0542 17.6388 41.0542 19.0043C41.0455 20.3699 39.0383 22.1007 35.9356 23.4054Z" fill="#61DAFB"/>
<path d="M21.4913 22.9792C23.7035 22.9792 25.4968 21.1996 25.4968 19.0044C25.4968 16.8091 23.7035 15.0295 21.4913 15.0295C19.2792 15.0295 17.4858 16.8091 17.4858 19.0044C17.4858 21.1996 19.2792 22.9792 21.4913 22.9792Z" fill="#61DAFB"/>
</svg>
