<svg viewBox="0 0 800 408" class="svg-blob__svg"><defs><clipPath id="svg-blob__clip--025a8305-d253-4d54-b01a-c2781ff98f33"><path class="svg-blob__path" d="M 88.95523120758392 15.964186164241747 Q 88.95523120758392 15.964186164241747 131.01991968282766 16.82534499273879 Q 173.08460815807138 17.68650382123583 219.07876535795378 11.95909552135351 Q 265.0729225578362 6.231687221471187 327.31620716112184 12.220650809908735 Q 389.5594917644074 18.209614398346282 458.6762012518438 13.624916188081436 Q 527.7929107392802 9.04021797781659 569.6479647936927 6.701462446417934 Q 611.5030188481053 4.362706915019277 651.5752651633865 4.178804848997958 Q 691.6475114786676 3.994902782976638 739.9584373014245 7.309925502783224 Q 788.2693631241815 10.62494822258981 789.6209960582331 49.4660007849176 Q 790.9726289922847 88.30705334724539 786.1695985352314 148.87325358479268 Q 781.3665680781781 209.43945382233994 788.5562122701842 257.4932221453684 Q 795.7458564621904 305.54699046839687 794.4575631182734 351.0585476709107 Q 793.1692697743562 396.57010487342455 722.8478253510326 396.2411499713843 Q 652.526380927709 395.91219506934397 600.6357220986822 393.0139857156179 Q 548.7450632696555 390.1157763618918 508.2867556105899 395.9907691870353 Q 467.8284479515243 401.86576201217883 399.4459564640614 403.20711939028484 Q 331.0634649765985 404.54847676839086 265.31738335257785 397.4993561282722 Q 199.57130172855724 390.45023548815357 145.7034994292409 395.11683404349367 Q 91.83569712992457 399.7834325988338 50.07379668108833 396.91860058579084 Q 8.3118962322521 394.0537685727479 11.991865073295816 363.73958595254317 Q 15.671833914339535 333.42540333233836 15.155887755359377 271.0527014733559 Q 14.639941596379217 208.67999961437351 10.946548450822394 165.20322704396716 Q 7.253155305265572 121.72645447356082 9.374900511380588 63.87087650485182 Q 11.496645717495603 6.015298536142826 50.22593846253976 10.989742350192287 Q 88.95523120758392 15.964186164241747 131.01991968282766 16.82534499273879"></path></clipPath></defs></svg>